<svg xmlns="http://www.w3.org/2000/svg" viewBox="0 0 248 248">
  <path d="M123.6 248C60.9 248 6.9 200.4.3 136.7l7.2-.7c6.6 64 64 110.8 128 104.2 31-3.2 59-18.3 78.6-42.4s28.7-54.6 25.5-85.6c-6.6-64-64-110.8-128-104.2-10.6 1-21.1 3.6-31.1 7.5l-2.7-6.8c10.6-4.1 21.8-6.9 33.2-8 33-3.4 65.3 6.2 90.9 27.1 25.7 20.9 41.7 50.6 45.1 83.5 3.4 33-6.2 65.3-27.1 90.9-20.9 25.7-50.6 41.7-83.5 45.1-4.3.5-8.6.7-12.8.7z"/>
  <path d="M123.7 237.1c-40.3 0-77.8-21.7-97.9-56.5l6.3-3.6c18.9 32.6 54 52.9 91.6 52.9 58.3 0 105.8-47.5 105.8-105.8S182 18.2 123.7 18.2c-19.8 0-39.1 5.5-55.9 15.9L64 28c17.9-11.1 38.5-17 59.7-17 62.3 0 113 50.7 113 113s-50.7 113.1-113 113.1z"/>
  <path d="M123.7 226.1c-17 0-33.8-4.3-48.7-12.3l3.5-6.4c13.8 7.5 29.4 11.4 45.2 11.4 52.3 0 94.8-42.5 94.8-94.8S176 29.2 123.7 29.2c-23.4 0-45.8 8.6-63.2 24.1l-4.8-5.4c18.7-16.7 42.9-26 68.1-26 56.3 0 102.1 45.8 102.1 102.1S180 226.1 123.7 226.1z"/>
  <path d="m146.5 212.3-1.8-7c37-9.5 62.9-42.9 62.9-81.3 0-46.3-37.6-83.9-83.9-83.9-27 0-52.5 13.1-68.3 35.1L49.5 71c17.1-23.9 44.8-38.1 74.2-38.1 50.3 0 91.2 40.9 91.2 91.2-.1 41.6-28.2 77.9-68.4 88.2z"/>
  <path d="m180.4 180.7-5.1-5.1c13.8-13.8 21.4-32.1 21.4-51.6 0-40.2-32.7-73-73-73-29.4 0-55.8 17.5-67.2 44.5l-6.7-2.8c12.6-29.8 41.6-49 73.9-49 44.2 0 80.2 36 80.2 80.2 0 21.5-8.3 41.7-23.5 56.8z"/>
  <path d="m62 117.8-7.2-.7c3.5-35.6 33.1-62.4 68.9-62.4 32.8 0 61.3 23.3 67.9 55.3l-7.1 1.5C178.6 82.8 153 62 123.7 62 91.6 62 65.1 86 62 117.8z"/>
  <path d="M66.4 135.4c-.7-3.7-1.1-7.6-1.1-11.4 0-32.2 26.2-58.3 58.3-58.3 10.8 0 21.4 3 30.5 8.6l-3.8 6.2c-8-4.9-17.2-7.5-26.7-7.5-28.2 0-51.1 22.9-51.1 51.1 0 3.4.3 6.7 1 10l-7.1 1.3z"/>
  <path d="M81.2 145c-3.2-6.6-4.9-13.6-4.9-21 0-18.2 10.6-35.1 27.1-42.9l3.1 6.6c-13.9 6.6-23 20.8-23 36.3 0 6.2 1.4 12.2 4.1 17.8l-6.4 3.2z"/>
  <path d="M96.5 148.3c-6-6.7-9.3-15.3-9.3-24.3 0-2.5.2-4.9.7-7.3l7.1 1.5c-.4 1.9-.6 3.9-.6 5.9 0 7.2 2.6 14.1 7.4 19.5l-5.3 4.7zM108.1 144.2c-6.3-4.9-10-12.2-10-20.2h7.3c0 5.7 2.6 11 7.1 14.5l-4.4 5.7zM123.7 138.6c-3.9 0-7.6-1.5-10.3-4.3l5.1-5.1c1.4 1.4 3.2 2.1 5.2 2.1 1 0 1.9-.2 2.8-.6l2.8 6.7c-1.8.8-3.7 1.2-5.6 1.2z"/>
</svg>
